<?xml version="1.0" standalone="no"?><!DOCTYPE svg PUBLIC "-//W3C//DTD SVG 1.1//EN" "http://www.w3.org/Graphics/SVG/1.1/DTD/svg11.dtd"><svg t="1744549519387" class="icon" viewBox="0 0 1024 1024" version="1.1" xmlns="http://www.w3.org/2000/svg" p-id="1459" xmlns:xlink="http://www.w3.org/1999/xlink" width="200" height="200"><path d="M518.711102 0.002047c141.184884 2.181773 266.955109 55.272955 367.597078 162.781574 98.055974 104.747632 143.634773 230.76653 137.07001 373.995036-6.142122 133.991786-58.088179 249.29523-154.397302 342.532268-103.132792 99.841712-228.287987 148.587767-371.823496 144.43503-142.849867-4.13227-264.445865-59.633431-361.510217-164.551962-94.357602-101.995855-139.551624-224.229397-135.374326-362.919364 4.148644-137.788399 56.580791-256.284682 155.646807-352.153766C254.835241 48.398118 374.731461 1.455198 518.711102 0.002047L518.711102 0.002047zM509.702589 64.851472c-114.438717 1.818486-216.80093 40.924623-302.067128 120.71899-91.981393 86.078734-140.407141 193.445108-142.579704 319.267524-2.124466 122.984678 41.025934 230.256904 126.785384 318.468291 85.427886 87.872659 191.077086 133.853634 313.604328 135.72124 119.146108 1.815415 223.941837-38.857464 311.053127-120.38538 89.147748-83.433385 137.612383-187.315267 142.159109-309.467965 4.816889-129.379566-39.806106-241.472775-131.005663-332.862674C741.182391 109.663785 634.829129 66.61572 509.702589 64.851472L509.702589 64.851472z" fill="#272536" p-id="1460"></path><path d="M681.246049 247.202488c-45.469302-27.88515-98.969822-33.463409-133.214043-33.697755-0.402175 0-0.773649-0.23537-1.209595-0.23537-0.436969 0-0.773649 0.23537-1.210618 0.23537-19.659497 0.034794-32.396059 1.780622-32.396059 1.780622l0 31.580452 0 32.25279 0 338.349854c-21.675488-5.072725-46.645126-5.039978-72.150997 1.813369-62.743379 16.798222-103.876765 66.755918-91.879058 111.574372 11.99566 44.81743 72.621737 67.493751 135.364093 50.696552 49.73563-13.338289 85.424816-47.506783 92.281233-83.419058 2.152096-4.435181 3.596037-9.239789 3.596037-14.514114L580.427042 293.598941c16.333623 5.443176 36.530376 11.690703 67.213354 17.47056 76.587202 14.478297 100.817984-31.94988 100.817984-31.94988C708.667624 277.405517 681.246049 247.202488 681.246049 247.202488L681.246049 247.202488 681.246049 247.202488z" fill="#272536" p-id="1461"></path></svg>